<svg xmlns="http://www.w3.org/2000/svg" viewBox="0 0 466.78 466.78"><defs><style>.cls-1{fill:#191919;}</style></defs><title>favicon</title><g id="Warstwa_2" data-name="Warstwa 2"><g id="Warstwa_1-2" data-name="Warstwa 1"><g id="Warstwa_2-2" data-name="Warstwa 2"><g id="Warstwa_1-2-2" data-name="Warstwa 1-2"><path class="cls-1" d="M0,0V466.78H466.78V0ZM407.32,130.26Q376.74,242.13,346.09,354c-2.16,7.88-.57,6.34-8.19,6.37-16.79.1-33.58-.13-50.36.13-4.06,0-5.52-1.28-6.55-5.06Q260.39,282.18,239.48,209c-.18-.64-.39-1.29-.57-1.93l-1,0L194.75,360.19c-1.33.08-2.39.21-3.47.21H136c-2.54,0-3.77-.56-4.51-3.28q-21.84-80.27-43.9-160.54c-2.72-10-5.49-20-8.31-30.27H53.07L69,106.57c1.26,0,2.46-.2,3.65-.2,18.3,0,36.6.07,54.88-.1,3.08,0,4.11,1,4.83,3.88q17.35,70.1,34.94,140.15a23.43,23.43,0,0,0,2.74,7c2.28-8.19,4.55-16.28,6.81-24.44q17-61.51,33.89-123.06c.75-2.75,1.95-3.55,4.78-3.55,15.15.15,30.31.18,45.46,0,3.28,0,4.36,1,5.23,4q20,70,40.2,140a7.65,7.65,0,0,0,1.85,3.41c1.49-5.7,3-11.47,4.44-17.12Q328.61,173.31,344.45,110c.51-2,.74-3.75,3.74-3.74,21.3.15,42.59.08,63.89.1a11.47,11.47,0,0,1,1.64.31C411.57,114.58,409.47,122.43,407.32,130.26Z"/></g></g></g></g></svg>