<svg xmlns="http://www.w3.org/2000/svg" viewBox="0 0 564.27 114.61"><title>waymore-logo_1</title><g id="Warstwa_2" data-name="Warstwa 2"><g id="Warstwa_1-2" data-name="Warstwa 1"><path d="M0,16.73,4.43.12H23.18L39,59.88l.6.07L56.55,0c5.1,0,10.24,0,15.37.08.46,0,1.12,1.08,1.32,1.76Q81.39,30,89.46,58.22c.11.39.31.76.7,1.71,1.48-5.54,2.84-10.58,4.18-15.63C98.09,30.14,101.81,16,105.63,1.85c.2-.72,1.17-1.74,1.81-1.76C113.17,0,118.91,0,125.08,0c-1,3.59-1.84,6.92-2.76,10.23Q111.7,48.6,101.08,87c-.41,1.49-1,2.19-2.67,2.15-5.24-.12-10.48,0-15.85,0L64.89,27.89l-.52-.05L46.69,89.06c-5.68,0-11.25,0-16.82-.07-.51,0-1.3-.9-1.47-1.52Q22.3,65.86,16.33,44.21C14,35.63,11.56,27.06,9.23,18.47a2.07,2.07,0,0,0-2.48-1.77C4.68,16.81,2.61,16.73,0,16.73Z"/><path d="M289.11,25.5V43.37l.55.07c1.25-4.18,2.64-8.32,3.69-12.55a7.48,7.48,0,0,1,4.83-5.46c13.46-5.78,27,1.3,29.7,15.63l.69,3.67c1.36-4.33,2.51-8,3.66-11.68a14.49,14.49,0,0,0,.91-3.11c.3-4.12,3.14-5.19,6.53-5.86C355,21,367.78,31,368.34,46.67c.27,7.66.09,15.33.12,23,0,1,0,2,0,3.25h5.86c-1.45,5.36-2.78,10.37-4.2,15.36-.1.36-.88.74-1.35.74-5.39.05-10.79,0-16.46,0,0-1.13,0-2,0-2.92,0-11.67.06-23.33,0-35-.07-8.45-5.4-12.89-13.7-11.63-5.69.86-9.5,5.7-9.71,13-.24,8.49-.11,17-.13,25.49,0,3.56,0,7.13,0,10.85H312.41c0-1,0-1.89,0-2.78q0-17,0-34a23.89,23.89,0,0,0-.24-4.23c-.87-4.74-3.68-7.71-7.76-8.38-5.74-.94-10.53,1.09-13.14,5.55-2,3.38-2.2,7.12-2.21,10.88,0,9.92,0,19.83,0,29.75,0,1,0,2,0,3.18H272.83V41.48l-5.7-.28c.82-3.15,1.57-6.1,2.36-9,1.78-6.68,1.79-6.68,8.67-6.68Z"/><path d="M173.81,33.31V25.63h16.08V73h5.84L191.4,88.92H173.8V69.41l-.55-.13c-.62,1.91-1.26,3.8-1.84,5.72-.85,2.78-1.79,5.55-2.46,8.37a6.11,6.11,0,0,1-3.31,4.07c-11.52,6.58-27.3,3.46-36.45-7.24-12.36-14.48-10.07-38.93,4.73-50.41,10.58-8.21,26.28-8.23,35.61-.05C170.9,30.92,172.31,32.06,173.81,33.31ZM155.54,75.65c10.43,0,18.19-7.86,18.18-18.41s-7.91-18.53-18.2-18.5c-10.13,0-18,8-18.08,18.38S145.24,75.65,155.54,75.65Z"/><path d="M514.44,63.33c1.72,6.91,6,10.66,12.21,12.41,8.57,2.42,17,1.06,25.31-1.43,2.59-.78,5.09-1.85,8.05-2.94-1.3,4.9-2.49,9.45-3.75,14a1.82,1.82,0,0,1-1,1c-13.17,5.28-26.55,6.73-39.71.5-12.69-6-17.9-16.89-17.59-30.52.35-15.08,8.88-26.54,22.68-31.06a33,33,0,0,1,43.61,32.52c-.15,5.54-.15,5.54-5.7,5.54H514.44Zm33.82-11.4c-.17-8.19-7.44-14.53-16.43-14.5-9.36,0-17.33,6.62-17.4,14.5Z"/><path d="M414,90.78c-19.22.07-34-14.39-34.11-33.33s14.75-33.79,33.93-33.83S447.85,38.22,448,57C448.05,76.06,433.31,90.71,414,90.78ZM396.25,57.14c0,10.57,7.36,18.14,17.7,18.12,10.15,0,17.7-7.61,17.8-17.91a17.62,17.62,0,0,0-17.82-18.19C403.82,39.18,396.28,46.84,396.25,57.14Z"/><path d="M196.87,41.34c1.35-5.12,2.53-9.79,3.86-14.4a2.47,2.47,0,0,1,1.83-1.38c4.33-.12,8.66,0,13-.11,1.61,0,1.91.92,2.34,2q6.75,17,13.51,34.08c.64,1.61,1.32,3.2,2.21,5.35l5.73-18c2.29-7.21,4.55-14.43,6.93-21.61.24-.72,1.19-1.7,1.83-1.72,5.48-.14,11-.08,16.79-.08-2,5.65-3.92,11-5.84,16.41q-12.42,34.76-24.8,69.53c-.8,2.26-1.72,3.3-4.33,3.15-4.81-.27-9.64-.08-14.86-.08.34-1,.57-1.88.88-2.68,2.76-7,5.62-14.05,8.25-21.14a6.66,6.66,0,0,0,0-4.43c-5.89-14.39-11.95-28.71-17.91-43.07a2.5,2.5,0,0,0-2.77-1.88C201.43,41.43,199.36,41.34,196.87,41.34Z"/><path d="M476.2,34.78c5-8.09,11.85-12.1,21.78-10-1.59,5.41-3.08,10.59-4.66,15.74A1.89,1.89,0,0,1,492,41.6c-10.87,1.17-15.89,6.39-16.18,17.45-.23,9-.08,18-.1,27,0,.9,0,1.8,0,2.86H459.41c0-7.95,0-15.83,0-23.71s0-15.62,0-23.69l-5.66-.27c1.38-5.06,2.71-10,4.12-14.91a1.65,1.65,0,0,1,1.3-.77c5.4-.05,10.81,0,16.46,0v9Z"/></g></g></svg>