<svg xmlns="http://www.w3.org/2000/svg" viewBox="0 0 989.89 199.61"><title>waymore_logo-final</title><g id="Warstwa_2" data-name="Warstwa 2"><g id="Warstwa_1-2" data-name="Warstwa 1"><path d="M112.84,61.56,86.49,155c-.81.05-1.46.13-2.12.13-11.25,0-22.5,0-33.75,0-1.55,0-2.3-.34-2.75-2q-13.33-49-26.8-98C19.41,49,17.72,42.92,16,36.65H0L9.73.18c.77,0,1.5-.12,2.23-.12C23.13.05,34.3.1,45.46,0c1.88,0,2.51.6,2.95,2.37Q59,45.16,69.74,87.92a14.3,14.3,0,0,0,1.67,4.29c1.39-5,2.78-9.94,4.16-14.92Q85.93,39.74,96.26,2.17C96.72.49,97.45,0,99.18,0c9.25.09,18.5.11,27.75,0,2,0,2.66.63,3.19,2.47q12.2,42.75,24.54,85.45A4.67,4.67,0,0,0,155.79,90c.91-3.48,1.84-7,2.71-10.45q9.7-38.63,19.37-77.27c.31-1.23.45-2.29,2.28-2.28,13,.09,26,.05,39,.06a7,7,0,0,1,1,.19c-1.31,4.82-2.59,9.61-3.9,14.39q-18.67,68.29-37.38,136.58c-1.32,4.81-.35,3.87-5,3.89-10.25.06-20.5-.08-30.74.08-2.48,0-3.37-.78-4-3.09q-12.57-44.72-25.34-89.38c-.11-.39-.24-.79-.35-1.18Z"/><path d="M511.45,155H476.59V79H466.1c1.46-5.61,2.8-10.82,4.17-16,1.45-5.56,2.94-11.1,4.38-16.66.29-1.12.59-1.93,2.07-1.92,11.16.06,22.33,0,33.49.05a6.78,6.78,0,0,1,1.18.26V78.34l.54.09c.67-2.24,1.37-4.47,2-6.72,2.15-7.52,4.24-15.06,6.48-22.56a5.51,5.51,0,0,1,2-2.92c11.64-7.42,30.29-6.86,41.18,1.26,8.31,6.19,12.14,15,13.94,24.87.4,2.18.56,4.39,1.19,6.68.93-3.21,1.87-6.42,2.77-9.64,2.2-7.85,4.33-15.73,6.64-23.55a4.45,4.45,0,0,1,2.34-2.48c22.65-9.1,48.15,4.08,53.47,27.84a91.28,91.28,0,0,1,1.9,17.08c.3,9.74.08,19.49.08,29.24,0,.89,0,1.79,0,3h10.4L647,155H610.78v-2.92c0-19.75.08-39.49-.08-59.24A33.93,33.93,0,0,0,609,82.64c-1.35-4.07-4.71-6.32-8.9-7.22-11.24-2.4-19.68,3.82-20.95,15.53a70.66,70.66,0,0,0-.37,7.48q0,26.74,0,53.49c0,1,0,2,0,3.07h-35.1c0-1,0-1.93,0-2.89,0-19.75,0-39.49,0-59.24A34.53,34.53,0,0,0,542.48,84c-1.32-4.83-4.73-7.71-9.68-8.67-11.58-2.24-20,4.51-21.15,17-.18,2-.19,4-.19,6q0,26.74,0,53.49Z"/><path d="M297.62,56.66V44.59h35.13v3c0,23.32,0,46.65-.05,70,0,2.41.64,3.24,3.05,3s4.77,0,7.47,0L338,139.93q-1.78,6.63-3.57,13.26c-.28,1-.46,2-2,2-11.33-.08-22.65-.06-34-.08a3.28,3.28,0,0,1-.71-.24V119.57l-.53-.08c-1.17,4.08-2.35,8.15-3.5,12.23-1.64,5.85-3.34,11.68-4.84,17.57a5.78,5.78,0,0,1-3.31,4c-21.27,11.07-48.43,4.12-62.48-16.26-9.9-14.36-12.53-30.45-10.21-47.45,2.1-15.36,8.53-28.55,21-38.15,12.82-9.85,27.33-12.59,43-8.74a36,36,0,0,1,18.57,11.61C296,54.94,296.63,55.58,297.62,56.66Zm.07,43.57c-.27-9.77-3.42-17.62-11.53-22.76-10.82-6.86-25.77-4.38-33.42,5.38-8.17,10.41-7.17,27.14,2.18,36.2a25.94,25.94,0,0,0,27.93,4.75C293.16,119.19,297.26,110.58,297.69,100.24Z"/><path d="M343.49,78.95,346,69.49c2.05-7.64,4.15-15.26,6.12-22.92.43-1.67,1.16-2.22,2.91-2.2q14.12.14,28.25,0c1.71,0,2.42.54,3,2.16q10.34,28.93,20.85,57.79c.22.61.47,1.22,1,2.51,1-3.66,1.94-6.7,2.77-9.75q6.89-25.3,13.75-50.61c.32-1.18.57-2.1,2.2-2.09,12.25.07,24.5,0,36.74.06a6.37,6.37,0,0,1,1.06.25c-1.3,3.87-2.57,7.7-3.88,11.51Q436.85,126.14,413,196.09c-.88,2.6-1.93,3.58-4.82,3.52-10.91-.22-21.83-.09-32.74-.09h-3l7-18.24c3.32-8.62,6.69-17.23,9.9-25.89a6,6,0,0,0,0-3.95c-9.4-23.41-18.91-46.78-28.34-70.18-.69-1.71-1.52-2.44-3.45-2.37C352.94,79.05,348.39,78.95,343.49,78.95Z"/><path d="M909.33,112.16a19.35,19.35,0,0,0,7.94,10.89c6.74,4.6,14.43,5.88,22.35,6.09a114.41,114.41,0,0,0,40.22-6.62l2.81-.95c-.4,1.66-.68,3-1,4.29-2.1,7.88-4.17,15.77-6.38,23.62a4,4,0,0,1-2,2.43c-19.87,7.21-40.07,9.12-60.52,2.85-23.59-7.24-38.31-27-39-51.82-.43-16.38,3.8-31.25,15.1-43.45,13.78-14.87,31.28-20.14,51-18,36.49,4,54.5,37.67,49.14,67.85-.41,2.29-1.31,2.85-3.56,2.84-24.24-.09-48.48-.06-72.73-.06Zm46.93-22.75c-.76-8.91-7.88-20.29-24.15-19.51-12.06.57-23.54,10.18-23.19,19.51Z"/><path d="M722.94,158.47c-33.87-.17-59.54-25.73-59.36-59.1.18-33.1,26.25-58.47,59.92-58.32s59.15,25.85,59,59.2C782.35,133,756.15,158.65,722.94,158.47Zm0-33.74c14.12.06,24.23-10.2,24.42-24.77.18-14.3-10.09-25.06-24.06-25.22s-24.6,10.46-24.65,24.88C698.62,114.3,708.66,124.68,723,124.74Z"/><path d="M800.28,78.93H789.8c.67-2.66,1.24-5,1.85-7.27,2.23-8.45,4.49-16.89,6.69-25.35.3-1.14.57-1.93,2-1.92,11.16.06,22.33,0,33.49.05a7.64,7.64,0,0,1,1.19.23V61.51c4.42-6.81,9.32-12.9,16.71-16.44s15.12-4,23.32-1.63l-10,36.72c-1.33-.11-2.48-.24-3.63-.31-9.15-.52-16.18,3.1-21,10.91a37,37,0,0,0-5.3,19.29c-.17,13.91-.08,27.83-.1,41.74,0,1,0,2,0,3.16H800.28Z"/></g></g></svg>